<?xml version="1.0" encoding="utf-8"?>
<!-- Generator: Adobe Illustrator 28.4.1, SVG Export Plug-In . SVG Version: 6.00 Build 0)  -->
<svg version="1.1" id="Layer_2_00000131335782585136032570000000861448419141137322_"
	 xmlns="http://www.w3.org/2000/svg" xmlns:xlink="http://www.w3.org/1999/xlink" x="0px" y="0px" viewBox="0 0 724.5 966"
	 style="enable-background:new 0 0 724.5 966;" xml:space="preserve">
<style type="text/css">
	.st0{clip-path:url(#SVGID_00000052804817117324964600000017224898343473367716_);}
	.st1{clip-path:url(#SVGID_00000141424182751114661880000006075393250742156427_);}
	.st2{clip-path:url(#SVGID_00000103257770145172194420000006567974028968267695_);}
</style>
<g id="Layer_1-2">
	<g>
		<defs>
			<path id="SVGID_1_" d="M313.9,298c20.5-13.9,47.3-13.9,67.8,0l28.8,19.5c10.4,7.1,22.8,10.7,35.4,10.4l34.8-0.9
				c24.7-0.6,47.3,13.9,57,36.6l13.7,32c5,11.6,13.4,21.4,24.2,27.9l29.7,18.1c21.1,12.8,32.3,37.3,28.2,61.6l-5.8,34.3
				c-2.1,12.4-0.3,25.2,5.2,36.5l15.2,31.3c10.8,22.2,7,48.8-9.7,67.1l-23.4,25.7c-8.5,9.3-13.8,21-15.3,33.6l-4.1,34.5
				c-2.9,24.6-20.5,44.9-44.4,51.2l-33.6,9c-12.2,3.2-23,10.2-31,20l-22.1,26.9c-15.7,19.1-41.5,26.7-65,19.1l-33.1-10.6
				c-12-3.8-24.9-3.8-36.9,0l-33.1,10.6c-23.5,7.6-49.3,0-65-19.1L209,846.5c-8-9.7-18.9-16.7-31.1-20l-33.6-9
				c-23.9-6.4-41.5-26.7-44.4-51.2l-4.1-34.5c-1.5-12.5-6.8-24.3-15.3-33.6l-23.4-25.7c-16.7-18.3-20.5-44.9-9.7-67.1l15.2-31.3
				c5.5-11.3,7.4-24.1,5.2-36.5l-5.8-34.3c-4.1-24.4,7-48.8,28.2-61.6l29.7-18.1c10.8-6.5,19.2-16.3,24.2-27.9l13.6-32
				c9.7-22.7,32.3-37.3,57-36.6l34.8,0.9c12.6,0.3,25-3.3,35.4-10.4L313.9,298L313.9,298z"/>
		</defs>
		<clipPath id="SVGID_00000183952868669157627180000013392338564858026132_">
			<use xlink:href="#SVGID_1_"  style="overflow:visible;"/>
		</clipPath>
		<g style="clip-path:url(#SVGID_00000183952868669157627180000013392338564858026132_);">
			<g>
				<defs>
					<rect id="SVGID_00000021806456143316054290000017361836869084851624_" x="0.2" y="0" width="724" height="966"/>
				</defs>
				<clipPath id="SVGID_00000071546279007606845770000003243830326234408344_">
					<use xlink:href="#SVGID_00000021806456143316054290000017361836869084851624_"  style="overflow:visible;"/>
				</clipPath>
				<g style="clip-path:url(#SVGID_00000071546279007606845770000003243830326234408344_);">
					<g>
						<defs>
							<rect id="SVGID_00000179604735352863335600000006809206033273282728_" y="0" width="724.5" height="966"/>
						</defs>
						<clipPath id="SVGID_00000044150233012378406590000016278140255858886304_">
							<use xlink:href="#SVGID_00000179604735352863335600000006809206033273282728_"  style="overflow:visible;"/>
						</clipPath>
						<g style="clip-path:url(#SVGID_00000044150233012378406590000016278140255858886304_);">
							
								<image style="overflow:visible;enable-background:new    ;" width="768" height="1344" xlink:href="../../../Downloads/Gemini_Generated_Image_3p4sk3p4sk3p4sk3.png"  transform="matrix(1.0856 0 0 1.0856 -44.2857 -154.4489)">
							</image>
						</g>
					</g>
				</g>
			</g>
		</g>
	</g>
</g>
</svg>
