<?xml version="1.0" encoding="utf-8"?>
<!-- Generator: Adobe Illustrator 28.4.1, SVG Export Plug-In . SVG Version: 6.00 Build 0)  -->
<svg version="1.1" id="Layer_2_00000131335782585136032570000000861448419141137322_"
	 xmlns="http://www.w3.org/2000/svg" xmlns:xlink="http://www.w3.org/1999/xlink" x="0px" y="0px" viewBox="0 0 724.5 966"
	 style="enable-background:new 0 0 724.5 966;" xml:space="preserve">
<style type="text/css">
	.st0{clip-path:url(#SVGID_00000159464053858883748410000006661699943666631349_);}
	.st1{clip-path:url(#SVGID_00000046331887710975966740000016919859789729565883_);}
	.st2{clip-path:url(#SVGID_00000119822572271059987060000013705486237272712604_);}
</style>
<g id="Layer_1-2">
	<g>
		<g>
			<defs>
				<path id="SVGID_1_" d="M313.9,298c20.5-13.9,47.3-13.9,67.8,0l28.8,19.5c10.4,7.1,22.8,10.7,35.4,10.4l34.8-0.9
					c24.7-0.6,47.3,13.9,57,36.6l13.7,32c5,11.6,13.4,21.4,24.2,27.9l29.7,18.1c21.1,12.8,32.3,37.3,28.2,61.6l-5.8,34.3
					c-2.1,12.4-0.3,25.2,5.2,36.5l15.2,31.3c10.8,22.2,7,48.8-9.7,67.1L615,698.1c-8.5,9.3-13.8,21-15.3,33.6l-4.1,34.5
					c-2.9,24.6-20.5,44.9-44.4,51.2l-33.6,9c-12.2,3.2-23,10.2-31,20l-22.1,26.9c-15.7,19.1-41.5,26.7-65,19.1l-33.1-10.6
					c-12-3.8-24.9-3.8-36.9,0l-33.1,10.6c-23.5,7.6-49.3,0-65-19.1L209,846.5c-8-9.7-18.9-16.7-31.1-20l-33.6-9
					c-23.9-6.4-41.5-26.7-44.4-51.2l-4.1-34.5c-1.5-12.5-6.8-24.3-15.3-33.6l-23.4-25.7c-16.7-18.3-20.5-44.9-9.7-67.1l15.2-31.3
					c5.5-11.3,7.4-24.1,5.2-36.5L62,503.3c-4.1-24.4,7-48.8,28.2-61.6l29.7-18.1c10.8-6.5,19.2-16.3,24.2-27.9l13.6-32
					c9.7-22.7,32.3-37.3,57-36.6l34.8,0.9c12.6,0.3,25-3.3,35.4-10.4L313.9,298L313.9,298z"/>
			</defs>
			<clipPath id="SVGID_00000091695879732946210000000015645632373670200451_">
				<use xlink:href="#SVGID_1_"  style="overflow:visible;"/>
			</clipPath>
			<g style="clip-path:url(#SVGID_00000091695879732946210000000015645632373670200451_);">
				<g>
					<g>
						<defs>
							<rect id="SVGID_00000009562815538799577530000015399412920080749214_" x="0.2" y="0" width="724" height="966"/>
						</defs>
						<clipPath id="SVGID_00000127737628498636449410000005014694330349595286_">
							<use xlink:href="#SVGID_00000009562815538799577530000015399412920080749214_"  style="overflow:visible;"/>
						</clipPath>
						<g style="clip-path:url(#SVGID_00000127737628498636449410000005014694330349595286_);">
							<g>
								<g>
									<defs>
										<rect id="SVGID_00000120531375160779787650000010913723649399454594_" y="0" width="724.5" height="966"/>
									</defs>
									<clipPath id="SVGID_00000013884033521706008110000002830239046969212314_">
										<use xlink:href="#SVGID_00000120531375160779787650000010913723649399454594_"  style="overflow:visible;"/>
									</clipPath>
									<g style="clip-path:url(#SVGID_00000013884033521706008110000002830239046969212314_);">
										
											<image style="overflow:visible;enable-background:new    ;" width="768" height="1344" xlink:href="../../../Downloads/Gemini_Generated_Image_3p4sk3p4sk3p4sk3.png"  transform="matrix(1.0856 0 0 1.0856 -44.2857 -154.4489)">
										</image>
									</g>
								</g>
							</g>
						</g>
					</g>
				</g>
			</g>
		</g>
	</g>
</g>
</svg>
