<?xml version="1.0" encoding="UTF-8"?>
<svg id="Layer_2" data-name="Layer 2" xmlns="http://www.w3.org/2000/svg" viewBox="0 0 166.24 210.06">
  <defs>
    <style>
      .cls-1, .cls-2 {
        fill: #000;
      }

      .cls-1, .cls-3, .cls-4, .cls-5 {
        stroke-width: 0px;
      }

      .cls-2 {
        stroke: #fff;
        stroke-miterlimit: 10;
        stroke-width: 16px;
      }

      .cls-3 {
        fill: #148d6e;
      }

      .cls-4 {
        fill: #f8d0b7;
      }

      .cls-5 {
        fill: #81d7ba;
      }
    </style>
  </defs>
  <g id="Layer_1-2" data-name="Layer 1">
    <g>
      <path class="cls-2" d="M155.51,32.35l-32.7-23.16c-2.91-2.06-6.95-1.37-9.01,1.54l-8.97,12.66,9.49,6.72h0s-9.49-6.72-9.49-6.72L16.67,147.86c-3,9.74-7.05,26.33-8.29,38.72-.09.82-.16,1.66-.22,2.52,0,.07,0,.14-.01.21-.02.25-.03.51-.04.77-.3,5.28.07,9.44,1.5,11.39.05.03.1.05.16.07.12.12.24.22.37.3,1.02.61,3.89-.05,7.2-1.19,7.5-2.23,20.85-8.23,42.6-22.15l88.17-124.47-10.55-7.47h0l10.55,7.47,8.97-12.66c2.06-2.91,1.37-6.95-1.54-9.01ZM129.1,40.57l-6.33-4.48h0s6.33,4.48,6.33,4.48h0Z"/>
      <g>
        <rect class="cls-3" x="6.11" y="74.44" width="152.54" height="53" transform="translate(-47.61 109.82) rotate(-54.69)"/>
        <path class="cls-5" d="M113.8,10.73c2.06-2.91,6.1-3.6,9.01-1.54l32.7,23.16c2.91,2.06,3.6,6.1,1.54,9.01l-8.97,12.66-43.25-30.63,8.97-12.66Z"/>
        <rect class="cls-5" x="-4.26" y="85.42" width="164.17" height="10.34" transform="translate(-41.08 101.74) rotate(-54.69)"/>
        <rect class="cls-5" x="10.51" y="95.88" width="164.17" height="10.34" transform="translate(-43.39 118.2) rotate(-54.69)"/>
        <path class="cls-4" d="M9.59,201.46c-4.83-6.59,2.4-38.43,7.08-53.6l7.58-1.76,1.23,7.21,7.74-.86,1.76,7.58,8.26-.48.7,6.83,6.68-1.6.18,6.46,7.74-.86,1.38,8.11c-34.77,22.26-48.09,24.28-50.32,22.97Z"/>
        <path class="cls-1" d="M28.58,195.9l-19.52-13.82c-1.22,5.75-1.91,18,1.06,19.76,2.22,1.32,13.19-3.33,18.46-5.93Z"/>
      </g>
    </g>
  </g>
</svg>